<svg width="31" height="31" viewBox="0 0 31 31" fill="none" xmlns="http://www.w3.org/2000/svg">
<g id="g689">
<g id="Clip path group">
<mask id="mask0_88_1335" style="mask-type:luminance" maskUnits="userSpaceOnUse" x="0" y="0" width="31" height="31">
<g id="clipPath695">
<path id="path693" d="M0 0H31V31H0V0Z" fill="white"/>
</g>
</mask>
<g mask="url(#mask0_88_1335)">
<g id="g691">
<g id="g697">
<path id="path699" d="M18.8525 14.0202C18.6053 10.633 17.3536 7.63724 15.5 5.55044C13.4237 7.88803 12.1025 11.3663 12.1025 15.2575C12.1025 15.8449 12.1326 16.4228 12.1909 16.9888" stroke="#0052CC" stroke-width="1.5" stroke-miterlimit="10" stroke-linecap="round" stroke-linejoin="round"/>
</g>
<g id="g701">
<path id="path703" d="M11.0833 15.7912C8.35949 13.0674 4.99992 11.5574 1.91016 11.3745C2.09307 14.4643 3.60305 17.8238 6.32687 20.5476C9.05069 23.2715 12.4103 24.7814 15.5 24.9644C15.3171 21.8746 13.8071 18.515 11.0833 15.7912Z" stroke="#0052CC" stroke-width="1.5" stroke-miterlimit="10" stroke-linecap="round" stroke-linejoin="round"/>
</g>
<g id="g705">
<path id="path707" d="M12.5033 11.2331C11.1401 9.77069 9.56969 8.66843 7.94243 7.99999C7.50995 9.55345 7.39436 11.2931 7.62208 13.0928" stroke="#0052CC" stroke-width="1.5" stroke-miterlimit="10" stroke-linecap="round" stroke-linejoin="round"/>
</g>
<g id="g709">
<path id="path711" d="M2.1571 18.7354C1.56144 18.8514 0.991092 19.0156 0.454102 19.2255C1.66595 21.4929 3.97272 23.5026 6.97433 24.6108C9.97589 25.7191 13.0352 25.6906 15.4297 24.7548" stroke="#0052CC" stroke-width="1.5" stroke-miterlimit="10" stroke-linecap="round" stroke-linejoin="round"/>
</g>
<g id="g713">
<path id="path715" d="M28.8429 18.7356C29.4386 18.8516 30.0089 19.0159 30.5459 19.2257C29.3341 21.4931 27.0273 23.5028 24.0257 24.6111C21.0241 25.7193 17.9648 25.6909 15.5703 24.755" stroke="#0052CC" stroke-width="1.5" stroke-miterlimit="10" stroke-linecap="round" stroke-linejoin="round"/>
</g>
<g id="g717">
<path id="path719" d="M19.9167 15.7912C22.6405 13.0674 26.0001 11.5574 29.0899 11.3745C28.907 14.4643 27.397 17.8238 24.6732 20.5476C21.9493 23.2715 18.5898 24.7814 15.5 24.9644C15.6829 21.8746 17.1929 18.515 19.9167 15.7912Z" stroke="#0052CC" stroke-width="1.5" stroke-miterlimit="10" stroke-linecap="round" stroke-linejoin="round"/>
</g>
<g id="g721">
<path id="path723" d="M18.4971 11.2331C19.8603 9.77069 21.4307 8.66843 23.0579 7.99999C23.4904 9.55345 23.606 11.2931 23.3783 13.0928" stroke="#0052CC" stroke-width="1.5" stroke-miterlimit="10" stroke-linecap="round" stroke-linejoin="round"/>
</g>
</g>
</g>
</g>
</g>
</svg>
