<svg width="45" height="46" viewBox="0 0 45 46" fill="none" xmlns="http://www.w3.org/2000/svg">
<g id="Group">
<path id="Vector" d="M24.445 19.5357L28.604 15.9285C29.6979 16.6847 31.2082 16.6386 32.2582 15.7278C33.5019 14.6491 33.6361 12.7599 32.5574 11.5163C31.4788 10.2727 29.5896 10.1385 28.3459 11.2172C27.2959 12.1279 27.0368 13.6164 27.6307 14.8063L23.4718 18.4135C22.2706 17.3875 20.6728 17.0175 19.1849 17.3397L18.9629 13.2077C19.1851 13.1207 19.3966 12.9953 19.5869 12.8302C20.4839 12.0522 20.5807 10.6895 19.8027 9.79254C19.0247 8.89557 17.662 8.79877 16.765 9.57675C15.8681 10.3547 15.7713 11.7175 16.5493 12.6144C16.807 12.9116 17.129 13.1203 17.4769 13.2391L17.7278 17.9098C17.4699 18.0614 17.2217 18.2371 16.9877 18.4401C16.1543 19.1629 15.6207 20.1044 15.3969 21.1064L9.50692 20.688C9.09775 20.659 8.74248 20.9671 8.71349 21.3762C8.69903 21.5808 8.76877 21.772 8.89329 21.9156C9.01781 22.0591 9.19715 22.1553 9.4018 22.1698L15.2918 22.5882C15.3534 23.3775 15.6025 24.1573 16.045 24.8552L11.8767 28.4705C11.1087 28.0478 10.1253 28.1222 9.4255 28.7292C8.52853 29.5072 8.43173 30.87 9.20971 31.7669C9.9877 32.6639 11.3504 32.7607 12.2474 31.9827C12.9473 31.3756 13.16 30.4126 12.85 29.5927L17.0182 25.9774C18.8559 27.5474 21.6221 27.5817 23.5022 25.951C25.3823 24.3202 25.7394 21.5769 24.445 19.5357ZM17.6713 11.6412C17.4299 11.3629 17.46 10.9403 17.7383 10.699C18.0165 10.4576 18.4391 10.4876 18.6805 10.7659C18.9219 11.0442 18.8918 11.4668 18.6136 11.7081C18.3353 11.9495 17.9126 11.9194 17.6713 11.6412ZM29.3191 12.3392C29.944 11.7972 30.8933 11.8647 31.4352 12.4895C31.9771 13.1143 31.9098 14.0636 31.2849 14.6056C30.66 15.1476 29.7107 15.0801 29.1688 14.4553C28.6268 13.8305 28.6943 12.8812 29.3191 12.3392ZM10.3319 30.7936C10.0905 30.5153 10.1206 30.0927 10.3988 29.8514C10.6423 29.6402 10.9964 29.6368 11.2428 29.8258C11.2653 29.8639 11.291 29.9009 11.3211 29.9356C11.3512 29.9703 11.3842 30.001 11.4188 30.0287C11.5711 30.2993 11.5176 30.6494 11.2741 30.8606C10.9959 31.1019 10.5732 31.0719 10.3319 30.7936ZM17.6117 24.4794C16.3523 23.0274 16.5091 20.8216 17.9611 19.5622C18.2173 19.34 18.4974 19.1627 18.7912 19.028C18.806 19.0216 18.8205 19.015 18.8347 19.0077C20.1977 18.4055 21.8521 18.7283 22.8783 19.9114C24.1377 21.3634 23.981 23.5693 22.529 24.8287C21.077 26.0882 18.8711 25.9314 17.6117 24.4794Z" fill="#FF562F"/>
<path id="Vector_2" d="M35.3273 28.5738C34.2486 27.3301 32.3594 27.1959 31.1157 28.2746C31.0578 28.3249 31.0031 28.3774 30.95 28.4311L26.0472 25.5735C25.6929 25.3669 25.238 25.4868 25.0315 25.8411C24.8672 26.123 24.9094 26.4684 25.1119 26.7019C25.164 26.762 25.2267 26.8146 25.2991 26.8569L30.2017 29.7143C29.9372 30.6506 30.1329 31.698 30.8166 32.4863C31.8952 33.7299 33.7844 33.8641 35.0281 32.7854C36.2716 31.7066 36.4059 29.8173 35.3273 28.5738ZM31.9386 31.5129C31.3967 30.888 31.4641 29.9388 32.089 29.3968C32.7138 28.8548 33.6631 28.9223 34.2051 29.5471C34.747 30.1719 34.6796 31.1212 34.0547 31.6632C33.4299 32.2051 32.4806 32.1377 31.9386 31.5129Z" fill="#FF562F"/>
<path id="Vector_3" d="M6.88392 19.1299C5.80526 17.8862 3.91593 17.7521 2.67238 18.8307C1.42874 19.9094 1.29454 21.7986 2.37321 23.0422C3.45181 24.2858 5.34106 24.42 6.58469 23.3413C7.82831 22.2628 7.96253 20.3734 6.88392 19.1299ZM3.49528 22.069C2.95328 21.4441 3.02071 20.4949 3.6456 19.9529C4.27048 19.4109 5.21978 19.4784 5.76171 20.1032C6.30364 20.728 6.23621 21.6773 5.61132 22.2193C4.98658 22.7613 4.03727 22.6939 3.49528 22.069Z" fill="#FF562F"/>
</g>
</svg>
